{
    "asset": {
        "version": "2.0",
        "generator": "Open Asset Import Library (assimp v5.0.5eb040c7)"
    },
    "accessors": [
        {
            "bufferView": 0,
            "byteOffset": 0,
            "componentType": 5126,
            "count": 338,
            "type": "VEC3",
            "max": [
                0.3774595856666565,
                0.3420853018760681,
                0.8320477604866028
            ],
            "min": [
                -0.38311126828193667,
                -0.3573155999183655,
                -0.041350364685058597
            ]
        },
        {
            "bufferView": 1,
            "byteOffset": 0,
            "componentType": 5126,
            "count": 338,
            "type": "VEC3",
            "max": [
                0.9990089535713196,
                0.9988529086112976,
                0.998564600944519
            ],
            "min": [
                -0.9963006973266602,
                -0.9932183623313904,
                -0.999982476234436
            ]
        },
        {
            "bufferView": 2,
            "byteOffset": 0,
            "componentType": 5125,
            "count": 2016,
            "type": "SCALAR",
            "max": [
                337
            ],
            "min": [
                0
            ]
        }
    ],
    "buffers": [
        {
            "byteLength": 16176,
            "uri": "result.bin"
        }
    ],
    "bufferViews": [
        {
            "buffer": 0,
            "byteOffset": 0,
            "byteLength": 4056,
            "target": 34962
        },
        {
            "buffer": 0,
            "byteOffset": 4056,
            "byteLength": 4056,
            "target": 34962
        },
        {
            "buffer": 0,
            "byteOffset": 8112,
            "byteLength": 8064,
            "target": 34963
        }
    ],
    "materials": [
        {
            "name": "Material.001",
            "pbrMetallicRoughness": {
                "baseColorFactor": [
                    0.800000011920929,
                    0.800000011920929,
                    0.800000011920929,
                    1.0
                ],
                "metallicFactor": 0.0,
                "roughnessFactor": 0.873508870601654
            }
        }
    ],
    "meshes": [
        {
            "name": "Plane",
            "primitives": [
                {
                    "mode": 4,
                    "material": 0,
                    "indices": 2,
                    "attributes": {
                        "POSITION": 0,
                        "NORMAL": 1
                    }
                }
            ]
        }
    ],
    "nodes": [
        {
            "name": "RootNode",
            "children": [
                1
            ]
        },
        {
            "name": "Mushroom",
            "matrix": [
                9.904226303100586,
                0.0,
                0.0,
                0.0,
                0.0,
                -0.0000016136033309521736,
                -9.904226303100586,
                0.0,
                0.0,
                9.904226303100586,
                -0.0000016136033309521736,
                0.0,
                0.0,
                0.0,
                0.0,
                1.0
            ],
            "mesh": 0
        }
    ],
    "scenes": [
        {
            "nodes": [
                0
            ]
        }
    ],
    "scene": 0
}